<svg version="1.1" id="Layer_1" xmlns="http://www.w3.org/2000/svg" xmlns:xlink="http://www.w3.org/1999/xlink" x="0px" y="0px"
	 width="100%" viewBox="0 0 512 512" enable-background="new 0 0 512 512" xml:space="preserve">
<path fill="#000000" opacity="1.000000" stroke="none" 
	d="
M0.999999,185.468658 
	C2.118782,181.883881 3.134183,178.726028 4.372628,175.658218 
	C14.710648,150.049301 40.356709,138.110352 66.051430,148.283951 
	C98.078377,160.964798 115.140221,185.692673 119.330627,219.522247 
	C121.147453,234.189636 118.630402,248.134094 110.052147,260.425110 
	C96.767868,279.459045 71.974968,285.383881 49.390938,274.742371 
	C24.601206,263.061554 9.602294,243.223480 2.759114,216.933838 
	C2.299551,215.168320 1.815000,213.409302 1.171035,211.323639 
	C1.000000,202.645767 1.000000,194.291534 0.999999,185.468658 
M79.525276,181.975571 
	C74.469337,176.805756 68.796631,172.461166 62.112133,169.636581 
	C52.222229,165.457520 42.386364,164.653351 33.177067,171.353638 
	C24.061001,177.986053 21.202324,187.928177 21.661505,198.264328 
	C22.742552,222.598587 33.810287,241.471741 55.158886,253.782425 
	C61.010406,257.156708 67.500504,259.174225 74.284676,258.276978 
	C88.962227,256.335754 98.389694,245.141937 98.602188,229.443848 
	C98.847672,211.308365 92.733528,195.554916 79.525276,181.975571 
z"/>
<path fill="#000000" opacity="1.000000" stroke="none" 
	d="
M513.000000,209.531372 
	C509.954987,224.322342 504.877350,237.751083 495.866180,249.497757 
	C485.104034,263.526886 471.706482,273.824463 454.392761,278.282043 
	C427.551910,285.192535 401.971527,269.374939 395.883484,242.335587 
	C387.567169,205.399857 410.177124,162.941483 445.571136,149.028976 
	C475.730469,137.174088 504.754883,152.392426 512.105469,183.913834 
	C512.293823,184.721497 512.497253,185.525650 512.846802,186.665726 
	C513.000000,194.354248 513.000000,201.708496 513.000000,209.531372 
M491.645874,189.915588 
	C487.063141,169.289185 469.976562,160.545166 451.167969,170.125885 
	C427.515472,182.174026 415.776428,202.327774 415.455444,228.639542 
	C415.164093,252.520981 435.797241,265.124329 457.206970,254.660248 
	C479.486145,243.771240 495.619141,216.625687 491.645874,189.915588 
z"/>
<path fill="#000000" opacity="1.000000" stroke="none" 
	d="
M406.941406,311.012817 
	C435.169830,332.283600 447.628174,360.735809 447.294708,395.262695 
	C447.230164,401.944611 442.688995,407.005463 436.923157,407.097229 
	C431.055969,407.190613 426.135834,402.442139 426.073273,395.677704 
	C425.975586,385.114929 425.204803,374.725403 421.542267,364.716064 
	C414.793121,346.271362 403.232269,331.721161 385.531311,323.005981 
	C368.514618,314.627777 356.366913,302.186066 347.804047,285.284698 
	C334.998444,260.009003 316.523621,239.819885 289.476013,229.615326 
	C252.431244,215.638962 219.864502,224.692062 191.428635,251.141785 
	C180.439102,261.363739 171.832092,273.433380 165.352432,286.891846 
	C157.738693,302.705780 146.032928,314.024780 130.487183,322.013733 
	C102.562881,336.364105 88.662056,359.816040 88.060875,390.949615 
	C87.280083,431.384827 112.315536,462.599396 151.441650,470.229004 
	C173.421844,474.515167 193.959091,470.351318 212.260437,457.368561 
	C225.988205,447.630280 240.712936,441.592499 257.737946,441.799744 
	C272.707825,441.981995 286.290344,446.457001 298.361023,455.196716 
	C324.947449,474.446442 353.163605,476.550385 382.926147,463.688171 
	C384.149414,463.159515 385.335541,462.544952 386.558655,462.015961 
	C392.993073,459.233276 398.851349,461.031647 401.474213,466.579590 
	C404.131805,472.200958 402.108337,478.164825 395.913971,481.190338 
	C359.638885,498.908386 324.191742,497.990265 290.169495,475.485901 
	C280.392273,469.018646 270.530243,463.498901 258.530518,463.260681 
	C247.182037,463.035431 236.872391,466.252991 227.652496,472.973755 
	C189.964020,500.446655 140.026184,500.228302 103.954788,471.940643 
	C82.284477,454.946442 70.477974,432.123779 67.559242,404.857941 
	C63.891518,370.595398 73.757423,341.034973 99.182175,317.201294 
	C105.425438,311.348724 112.484161,306.551270 120.210564,302.941895 
	C132.380112,297.256897 140.806808,288.247070 146.827240,276.299988 
	C159.319901,251.509171 177.065262,231.366730 201.116882,217.046951 
	C239.447571,194.225723 288.874878,197.318481 324.252472,224.516556 
	C342.980103,238.914261 357.552063,256.624054 367.952179,277.723145 
	C373.415955,288.807709 381.512787,296.946320 392.505341,302.370819 
	C397.441864,304.806885 402.248444,307.469330 406.941406,311.012817 
z"/>
<path fill="#000000" opacity="1.000000" stroke="none" 
	d="
M237.373840,88.064331 
	C238.112442,109.057892 233.057434,127.756187 220.152725,144.033661 
	C200.954819,168.249115 168.121368,169.765762 146.815369,147.398636 
	C121.140503,120.445061 119.606270,69.531776 143.607834,40.957359 
	C166.236053,14.017942 201.398148,15.231750 222.427673,43.817654 
	C231.966766,56.784359 236.508957,71.582054 237.373840,88.064331 
M201.331619,132.832687 
	C213.136459,119.651573 217.369431,104.145500 215.965347,86.699875 
	C214.913162,73.626747 210.696259,61.969364 201.641846,52.393044 
	C190.115494,40.202267 174.601654,40.124409 162.806168,51.928074 
	C144.530975,70.215889 142.492950,105.333862 158.397629,127.760231 
	C168.275436,141.688446 185.430786,147.657135 201.331619,132.832687 
z"/>
<path fill="#000000" opacity="1.000000" stroke="none" 
	d="
M380.106323,57.035789 
	C392.310608,88.367607 390.370392,117.812752 369.612061,144.616028 
	C351.592407,167.883072 318.742981,169.475021 297.945496,148.652206 
	C269.923187,120.595787 269.423218,65.873558 296.928802,37.368050 
	C318.952332,14.543862 352.087128,16.850254 371.544983,42.554111 
	C374.875702,46.953957 377.699860,51.649441 380.106323,57.035789 
M350.961670,51.519798 
	C336.939331,39.652668 323.088806,40.435780 311.007477,53.778831 
	C293.313263,73.320930 293.458405,111.935829 311.299164,131.392517 
	C324.083771,145.335068 341.485474,144.870575 353.616974,130.262878 
	C371.626648,108.577187 370.655548,73.199699 350.961670,51.519798 
z"/>
<path fill="#000000" opacity="1.000000" stroke="none" 
	d="
M338.423218,373.920715 
	C342.234985,364.032166 349.888153,359.837250 359.349091,358.818359 
	C367.293030,357.962799 373.632111,362.637177 376.585297,370.452545 
	C379.551727,378.302948 377.754974,385.627991 371.573181,390.651855 
	C367.480621,393.977783 362.774506,396.036896 357.592590,396.873199 
	C345.615173,398.806244 335.876862,387.385406 338.423218,373.920715 
M361.175812,383.806000 
	C362.032532,383.301422 362.949615,382.876160 363.735413,382.278351 
	C366.887115,379.880524 369.098206,376.870209 366.926514,372.922760 
	C364.898041,369.235596 361.319916,369.300293 357.727539,370.502899 
	C356.786713,370.817871 355.862671,371.209900 354.976471,371.656799 
	C349.363617,374.487488 346.881195,378.733704 348.600220,382.507538 
	C350.241913,386.111511 354.232513,386.658813 361.175812,383.806000 
z"/>
<path fill="#000000" opacity="1.000000" stroke="none" 
	d="
M325.082520,349.096039 
	C324.571533,345.671936 321.435852,342.421021 325.638275,339.455231 
	C325.896881,339.272736 325.991302,338.806122 326.256683,338.692291 
	C331.409058,336.482452 333.099670,341.883057 336.525543,343.481445 
	C338.482117,344.394287 340.266693,345.951904 338.251923,348.584503 
	C335.524872,352.147827 332.876678,355.772003 330.225281,359.392517 
	C328.848572,361.272400 326.916718,361.410675 324.862885,361.231171 
	C316.644440,360.513092 308.588898,353.087311 306.941833,344.719299 
	C305.397705,336.874542 310.750183,326.923431 318.707733,322.844666 
	C326.485168,318.858215 335.653503,320.388184 341.583801,326.662567 
	C344.046478,329.268127 345.620361,332.281708 345.937988,335.850067 
	C340.471985,339.410675 339.072937,339.237305 335.524109,334.643951 
	C332.505341,330.736633 327.608582,329.997772 323.573395,332.840729 
	C317.871063,336.858246 316.118866,344.130310 319.956726,348.236053 
	C321.262909,349.633392 322.683411,351.537140 325.082520,349.096039 
z"/>
<path fill="#000000" opacity="1.000000" stroke="none" 
	d="
M138.964844,369.018677 
	C141.562851,364.529907 144.077896,360.408600 146.366104,356.164978 
	C147.873749,353.368988 149.565506,353.330322 151.970108,354.996857 
	C154.167023,356.519440 156.936127,357.499664 154.668991,361.047699 
	C152.889755,363.832214 151.365341,366.779510 149.709900,369.685791 
	C151.889252,372.505981 153.717270,372.757599 155.429337,369.590057 
	C156.061935,368.419647 156.824799,367.306488 157.338089,366.087128 
	C158.853210,362.487976 161.010254,362.677094 164.068527,364.356964 
	C167.170074,366.060608 167.727737,367.813660 165.615082,370.630280 
	C164.727600,371.813538 164.181656,373.251404 163.466614,374.565979 
	C162.589554,376.178406 162.210449,377.593079 164.251907,378.755463 
	C166.210220,379.870514 167.238541,379.053070 168.319427,377.453125 
	C170.357407,374.436493 171.450592,370.825867 174.138123,368.128418 
	C176.500046,367.898468 178.132263,369.517426 180.013580,370.442871 
	C181.642120,371.243896 182.103790,372.560730 181.205994,374.158081 
	C177.474915,380.796295 173.704102,387.412140 169.618881,394.616333 
	C164.391739,391.655609 159.662323,388.975616 154.931686,386.297760 
	C150.444702,383.757843 145.951324,381.229218 141.470001,378.679321 
	C135.587570,375.332245 135.591492,375.325348 138.964844,369.018677 
z"/>
<path fill="#000000" opacity="1.000000" stroke="none" 
	d="
M246.692200,302.981750 
	C252.672775,296.116821 261.574127,294.651642 268.972443,299.124298 
	C270.740112,300.192993 273.334991,301.353790 271.446533,304.048126 
	C269.903198,306.250122 268.847168,309.999725 264.638947,307.684570 
	C262.127838,306.303070 259.471924,305.401855 256.617828,307.606689 
	C257.735199,311.735870 261.636719,311.597748 264.429749,312.835907 
	C269.088715,314.901276 272.934143,317.425812 273.312744,323.116913 
	C273.905212,332.023590 266.182343,338.408417 256.246613,337.008209 
	C253.802505,336.663788 251.283615,336.022888 249.094177,334.928131 
	C246.849869,333.805969 242.985016,333.243256 244.567764,329.222168 
	C246.272797,324.890350 249.245224,323.963867 253.374985,325.961395 
	C253.674469,326.106262 253.959183,326.303192 254.274414,326.390625 
	C256.728912,327.071136 259.983093,329.132751 261.228119,325.744110 
	C262.307220,322.807129 258.378754,322.835327 256.595856,321.678131 
	C255.496399,320.964569 254.146332,320.649445 252.947769,320.074188 
	C245.505859,316.502411 243.435608,311.102478 246.692200,302.981750 
z"/>
<path fill="#000000" opacity="1.000000" stroke="none" 
	d="
M183.806610,318.808960 
	C186.827286,315.892426 188.871780,316.159454 191.293396,319.411469 
	C193.658234,322.587250 192.990158,324.428833 189.963394,326.154633 
	C186.476303,328.142944 186.582443,330.334534 189.049072,333.291138 
	C193.417206,338.526978 197.321533,344.152863 201.743469,349.339691 
	C204.985275,353.142242 201.865570,354.373749 199.644119,356.290222 
	C197.261200,358.346039 195.309830,359.720428 192.762390,356.237701 
	C187.871048,349.550537 182.652267,343.102844 177.833618,336.896210 
	C175.615982,336.834503 174.710358,337.959381 173.808624,338.850800 
	C170.424454,342.196350 168.055923,341.363556 165.574081,337.590759 
	C163.735367,334.795593 164.883469,333.450989 166.960007,331.867493 
	C172.517044,327.629974 178.015366,323.315491 183.806610,318.808960 
z"/>
<path fill="#000000" opacity="1.000000" stroke="none" 
	d="
M163.264954,425.899750 
	C162.901398,428.730591 161.410461,429.161255 159.271118,428.858887 
	C148.913055,427.394867 138.565796,425.819855 128.174088,424.642731 
	C122.750053,424.028320 124.897903,420.360260 124.817604,417.599640 
	C124.724251,414.390533 126.436508,413.224945 129.600235,413.677765 
	C136.174606,414.618652 142.824249,415.129883 149.336411,416.375000 
	C153.602448,417.190643 155.218643,415.594910 155.584167,411.738678 
	C155.725266,410.250305 155.774155,408.749176 155.994553,407.273193 
	C156.446823,404.244385 157.577194,402.657196 161.296631,403.322998 
	C164.793655,403.949005 166.225739,404.849579 165.500214,408.701141 
	C164.458359,414.231964 164.006699,419.873993 163.264954,425.899750 
z"/>
<path fill="#000000" opacity="1.000000" stroke="none" 
	d="
M432.824341,433.580933 
	C435.573547,440.399719 434.393463,445.637970 429.760437,448.490234 
	C424.995850,451.423523 419.205688,450.486115 415.872467,446.241882 
	C412.644867,442.132202 412.909180,435.706055 416.457031,432.027618 
	C420.144470,428.204437 426.174927,427.785156 430.528778,431.107391 
	C431.309753,431.703339 431.917480,432.526367 432.824341,433.580933 
z"/>
<path fill="#000000" opacity="1.000000" stroke="none" 
	d="
M367.626831,422.496216 
	C364.243958,421.678772 364.668152,419.292114 364.791504,417.196167 
	C364.919861,415.015961 366.772522,414.824402 368.412872,414.527466 
	C374.274750,413.466461 380.181213,412.607544 385.990356,411.311676 
	C391.746246,410.027710 389.982178,414.634735 390.779816,417.116638 
	C391.710236,420.011475 390.848572,422.080688 387.409973,422.170288 
	C380.957520,422.338379 374.503510,422.445953 367.626831,422.496216 
z"/>
<path fill="#000000" opacity="1.000000" stroke="none" 
	d="
M216.323730,312.541565 
	C212.642761,312.136475 210.841324,310.342072 210.728943,306.985382 
	C210.641296,304.367615 211.798172,302.495819 214.355942,301.708588 
	C217.727142,300.670959 220.144714,302.071381 221.932327,304.882050 
	C225.135605,309.918610 224.721970,317.312927 221.013382,321.646942 
	C219.874893,322.977478 218.723679,324.212677 216.882599,322.695953 
	C215.420837,321.491699 214.909332,320.159058 216.088745,318.388519 
	C217.262665,316.626221 218.783188,314.800873 216.323730,312.541565 
z"/>
<path fill="#000000" opacity="1.000000" stroke="none" 
	d="
M360.008240,414.614990 
	C363.631958,417.488037 364.145142,420.621063 361.396637,423.821381 
	C359.082245,426.516174 356.047058,427.013763 352.939606,425.096527 
	C350.261078,423.443939 348.973511,420.921387 350.256165,417.921844 
	C352.078644,413.659729 355.492920,412.823395 360.008240,414.614990 
z"/>
</svg>